<?xml version="1.0" encoding="iso-8859-1"?>
<!-- Generator: Adobe Illustrator 16.0.0, SVG Export Plug-In . SVG Version: 6.00 Build 0)  -->
<!DOCTYPE svg PUBLIC "-//W3C//DTD SVG 1.1//EN" "http://www.w3.org/Graphics/SVG/1.1/DTD/svg11.dtd">
<svg version="1.1" id="Capa_1" xmlns="http://www.w3.org/2000/svg" xmlns:xlink="http://www.w3.org/1999/xlink" x="0px" y="0px"
	 width="177.778px" height="177.778px" viewBox="0 0 177.778 177.778" style="enable-background:new 0 0 177.778 177.778;"
	 xml:space="preserve">
<g>
	<g>
		<polygon points="171.235,0 113.954,0 142.597,49.612 		"/>
		<polygon points="99.626,0 42.345,0 70.986,49.612 		"/>
		<polygon points="35.184,4.141 6.543,53.747 63.825,53.747 		"/>
		<polygon points="106.79,4.141 78.152,53.747 135.434,53.747 		"/>
		<polygon points="135.434,62.021 78.152,62.021 106.79,111.631 		"/>
		<polygon points="70.986,66.15 42.345,115.763 99.626,115.763 		"/>
		<polygon points="171.235,124.031 113.954,124.031 142.597,173.646 		"/>
		<polygon points="99.626,124.031 42.345,124.031 70.986,173.646 		"/>
		<polygon points="35.184,128.169 6.543,177.778 63.825,177.778 		"/>
		<polygon points="106.79,128.169 78.152,177.778 135.434,177.778 		"/>
	</g>
</g>
<g>
</g>
<g>
</g>
<g>
</g>
<g>
</g>
<g>
</g>
<g>
</g>
<g>
</g>
<g>
</g>
<g>
</g>
<g>
</g>
<g>
</g>
<g>
</g>
<g>
</g>
<g>
</g>
<g>
</g>
</svg>
